<svg xmlns="http://www.w3.org/2000/svg" width="64" height="64" viewBox="0 0 24 24" fill="none">
  <path
    d="M7 7.5c0-2 2-3.5 5-3.5 2.8 0 5 .9 5 3 0 1.6-1.4 2.2-2.8 2.7-1.9.7-3.7 1.1-3.7 2.8 0 1.8 2 2.2 3.9 2.8 1.7.5 3.6 1.1 3.6 3 0 2.1-2.4 3.2-5.5 3.2-3.2 0-5.5-1.3-5.5-3.4"
    stroke="#4f46e5"
    stroke-width="1.8"
    stroke-linecap="round"
    stroke-linejoin="round"
  />
  <path
    d="M9.2 6.9h.01M10.6 6.9h.01"
    stroke="#4f46e5"
    stroke-width="2.2"
    stroke-linecap="round"
  />
  <path
    d="M11.6 8.2c-.3.4-.7.7-1.2.7-.5 0-.9-.3-1.2-.7"
    stroke="#4f46e5"
    stroke-width="1.6"
    stroke-linecap="round"
  />
</svg>
